<?xml version="1.0" encoding="UTF-8"?>
<svg xmlns="http://www.w3.org/2000/svg" xmlns:xlink="http://www.w3.org/1999/xlink" width="px" height="px" viewBox="0 0 29 29" version="1.1">
<g id="surface1">
<path style=" stroke:none;fill-rule:nonzero;fill:rgb(0%,0%,0%);fill-opacity:1;" d="M 14.421875 8.542969 C 10.84375 8.542969 7.875 11.457031 7.875 15.089844 C 7.875 18.71875 10.792969 21.636719 14.421875 21.636719 C 18.054688 21.636719 20.96875 18.667969 20.96875 15.089844 C 20.96875 11.507812 18.003906 8.542969 14.421875 8.542969 Z M 14.421875 19.28125 C 12.121094 19.28125 10.230469 17.390625 10.230469 15.089844 C 10.230469 12.785156 12.121094 10.894531 14.421875 10.894531 C 16.726562 10.894531 18.617188 12.785156 18.617188 15.089844 C 18.617188 17.390625 16.726562 19.28125 14.421875 19.28125 Z M 14.421875 19.28125 "/>
<path style=" stroke:none;fill-rule:nonzero;fill:rgb(0%,0%,0%);fill-opacity:1;" d="M 22.710938 8.386719 C 22.710938 9.207031 22.046875 9.871094 21.226562 9.871094 C 20.40625 9.871094 19.742188 9.207031 19.742188 8.386719 C 19.742188 7.570312 20.40625 6.90625 21.226562 6.90625 C 22.046875 6.90625 22.710938 7.570312 22.710938 8.386719 Z M 22.710938 8.386719 "/>
<path style=" stroke:none;fill-rule:nonzero;fill:rgb(0%,0%,0%);fill-opacity:1;" d="M 25.0625 4.550781 C 23.730469 3.171875 21.839844 2.453125 19.691406 2.453125 L 9.15625 2.453125 C 4.707031 2.453125 1.738281 5.421875 1.738281 9.871094 L 1.738281 20.355469 C 1.738281 22.554688 2.453125 24.449219 3.886719 25.828125 C 5.269531 27.160156 7.109375 27.824219 9.207031 27.824219 L 19.640625 27.824219 C 21.839844 27.824219 23.679688 27.109375 25.011719 25.828125 C 26.390625 24.5 27.109375 22.605469 27.109375 20.40625 L 27.109375 9.871094 C 27.109375 7.722656 26.390625 5.882812 25.0625 4.550781 Z M 24.855469 20.40625 C 24.855469 21.992188 24.292969 23.273438 23.375 24.140625 C 22.453125 25.011719 21.175781 25.472656 19.640625 25.472656 L 9.207031 25.472656 C 7.671875 25.472656 6.394531 25.011719 5.472656 24.140625 C 4.550781 23.21875 4.089844 21.941406 4.089844 20.355469 L 4.089844 9.871094 C 4.089844 8.335938 4.550781 7.058594 5.472656 6.136719 C 6.34375 5.269531 7.671875 4.808594 9.207031 4.808594 L 19.742188 4.808594 C 21.277344 4.808594 22.554688 5.269531 23.476562 6.1875 C 24.34375 7.109375 24.855469 8.386719 24.855469 9.871094 Z M 24.855469 20.40625 "/>
</g>
</svg>
