<?xml version="1.0" encoding="UTF-8"?>
<svg xmlns="http://www.w3.org/2000/svg" xmlns:xlink="http://www.w3.org/1999/xlink" width="px" height="px" viewBox="0 0 29 29" version="1.1">
<g id="surface1">
<path style=" stroke:none;fill-rule:nonzero;fill:rgb(0%,0%,0%);fill-opacity:1;" d="M 26.882812 7.664062 C 25.960938 8.074219 24.96875 8.351562 23.929688 8.472656 C 24.992188 7.839844 25.804688 6.832031 26.191406 5.628906 C 25.195312 6.21875 24.097656 6.648438 22.925781 6.878906 C 21.988281 5.878906 20.648438 5.253906 19.171875 5.253906 C 16.332031 5.253906 14.03125 7.554688 14.03125 10.394531 C 14.03125 10.796875 14.074219 11.191406 14.164062 11.566406 C 9.890625 11.351562 6.101562 9.304688 3.5625 6.195312 C 3.121094 6.953125 2.867188 7.835938 2.867188 8.78125 C 2.867188 10.5625 3.773438 12.136719 5.15625 13.058594 C 4.3125 13.035156 3.519531 12.800781 2.824219 12.417969 C 2.824219 12.4375 2.824219 12.460938 2.824219 12.480469 C 2.824219 14.972656 4.597656 17.050781 6.949219 17.523438 C 6.519531 17.640625 6.066406 17.703125 5.59375 17.703125 C 5.265625 17.703125 4.941406 17.671875 4.628906 17.609375 C 5.28125 19.652344 7.179688 21.140625 9.429688 21.183594 C 7.671875 22.5625 5.453125 23.382812 3.046875 23.382812 C 2.628906 23.382812 2.222656 23.359375 1.816406 23.3125 C 4.09375 24.769531 6.796875 25.621094 9.699219 25.621094 C 19.160156 25.621094 24.332031 17.785156 24.332031 10.992188 C 24.332031 10.769531 24.328125 10.546875 24.316406 10.324219 C 25.320312 9.601562 26.191406 8.695312 26.882812 7.664062 Z M 26.882812 7.664062 "/>
</g>
</svg>
