<?xml version="1.0" encoding="UTF-8"?>
<svg xmlns="http://www.w3.org/2000/svg" xmlns:xlink="http://www.w3.org/1999/xlink" width="px" height="px" viewBox="0 0 400 400" version="1.1">
<g id="surface1">
<path style=" stroke:none;fill-rule:nonzero;fill:rgb(30.196078%,30.196078%,30.196078%);fill-opacity:1;" d="M 30.339844 323.617188 L 53.210938 300.746094 L 76.601562 324.53125 C 77.101562 325.035156 77.667969 325.425781 78.257812 325.757812 L 83.667969 310.390625 L 58.582031 284.890625 C 57.183594 283.46875 55.277344 282.667969 53.285156 282.65625 C 51.390625 282.824219 49.378906 283.4375 47.96875 284.847656 L 19.765625 313.046875 C 16.847656 315.96875 16.847656 320.699219 19.765625 323.617188 C 22.6875 326.539062 27.417969 326.539062 30.339844 323.617188 Z M 30.339844 323.617188 "/>
<path style=" stroke:none;fill-rule:nonzero;fill:rgb(30.196078%,30.196078%,30.196078%);fill-opacity:1;" d="M 314.359375 176.136719 C 313.292969 173.167969 310.480469 171.191406 307.328125 171.191406 C 304.171875 171.191406 301.359375 173.167969 300.292969 176.136719 L 274.792969 247.023438 L 233.40625 132 C 232.339844 129.027344 229.523438 127.050781 226.371094 127.050781 C 223.21875 127.050781 220.402344 129.027344 219.339844 132 L 177.476562 248.355469 L 151.519531 176.21875 C 150.453125 173.246094 147.640625 171.269531 144.484375 171.269531 C 141.332031 171.269531 138.519531 173.246094 137.453125 176.21875 L 87.679688 314.5625 C 87.667969 314.550781 87.660156 314.535156 87.648438 314.527344 L 75.75 347.980469 C 75.75 347.980469 63.632812 348.128906 60.25 348.164062 L 60.25 336.316406 L 70.773438 347.011719 L 76.300781 331.3125 L 58.582031 313.296875 C 57.183594 311.875 55.277344 311.074219 53.285156 311.066406 C 51.390625 311.113281 49.378906 311.847656 47.96875 313.257812 L 19.765625 341.453125 C 16.847656 344.375 16.847656 349.109375 19.765625 352.027344 C 22.6875 354.949219 27.417969 354.949219 30.339844 352.027344 L 45.300781 337.066406 L 45.300781 355.402344 C 45.296875 355.527344 45.265625 355.644531 45.265625 355.773438 C 45.308594 359.875 48.648438 363.175781 52.738281 363.175781 C 52.765625 363.175781 52.792969 363.175781 52.816406 363.175781 C 61.535156 363.082031 70.261719 363.046875 78.984375 362.96875 C 100.617188 362.789062 122.234375 362.660156 143.859375 362.582031 C 166.363281 362.503906 188.816406 362.472656 211.234375 362.503906 C 221.15625 362.515625 231.074219 362.53125 240.972656 362.566406 C 263.378906 362.640625 285.679688 362.773438 307.886719 362.960938 C 307.554688 363.050781 307.207031 363.078125 306.863281 363.121094 L 371 363.121094 C 373.4375 363.121094 375.71875 361.9375 377.117188 359.941406 C 378.515625 357.953125 378.859375 355.402344 378.035156 353.113281 Z M 307.328125 200.75 L 318.21875 231.023438 L 307.253906 243.617188 L 296.269531 231.484375 Z M 226.371094 156.613281 L 241.964844 199.957031 L 225.765625 217.84375 L 210.261719 201.382812 Z M 144.484375 200.828125 L 155.476562 231.371094 L 144.8125 243.617188 L 133.5625 231.1875 Z M 141.417969 348.25 L 91.445312 348.25 L 91.5625 347.921875 L 127.828125 247.128906 L 139.378906 259.890625 C 140.796875 261.460938 142.808594 262.351562 144.921875 262.351562 C 144.945312 262.351562 144.96875 262.351562 144.992188 262.351562 C 147.128906 262.332031 149.15625 261.398438 150.558594 259.78125 L 161.269531 247.480469 L 169.53125 270.4375 Z M 238.363281 348.277344 L 157.417969 348.277344 L 157.425781 348.25 L 157.304688 348.25 L 177.476562 292.519531 L 185.417969 270.4375 L 204.585938 217.167969 L 220.429688 233.984375 C 221.84375 235.484375 223.8125 236.335938 225.871094 236.335938 C 225.898438 236.335938 225.921875 236.335938 225.945312 236.335938 C 228.03125 236.316406 230.011719 235.421875 231.414062 233.878906 L 247.703125 215.894531 L 266.84375 269.101562 L 274.789062 291.183594 L 295.175781 348.277344 Z M 324.855469 348.167969 L 311.027344 348.167969 L 282.734375 269.101562 L 290.535156 247.425781 L 301.820312 259.890625 C 303.238281 261.460938 305.25 262.355469 307.363281 262.355469 C 307.386719 262.355469 307.410156 262.355469 307.433594 262.355469 C 309.570312 262.332031 311.597656 261.398438 313 259.785156 L 324.015625 247.132812 L 360.367188 348.167969 Z M 324.855469 348.167969 "/>
<path style=" stroke:none;fill-rule:nonzero;fill:rgb(30.196078%,30.196078%,30.196078%);fill-opacity:1;" d="M 30.339844 295.210938 L 53.210938 272.339844 L 76.601562 296.125 C 78.066406 297.613281 80 298.359375 81.933594 298.359375 C 83.824219 298.359375 85.71875 297.644531 87.175781 296.214844 C 90.117188 293.316406 90.160156 288.582031 87.261719 285.640625 L 58.582031 256.484375 C 57.183594 255.058594 55.277344 254.261719 53.285156 254.25 C 51.390625 254.136719 49.378906 255.027344 47.96875 256.4375 L 19.765625 284.640625 C 16.847656 287.558594 16.847656 292.296875 19.765625 295.210938 C 22.6875 298.132812 27.417969 298.132812 30.339844 295.210938 Z M 30.339844 295.210938 "/>
<path style=" stroke:none;fill-rule:nonzero;fill:rgb(30.196078%,30.196078%,30.196078%);fill-opacity:1;" d="M 51.546875 138.902344 C 66.4375 138.902344 78.550781 126.789062 78.550781 111.898438 C 78.550781 97.007812 66.4375 84.894531 51.546875 84.894531 C 36.65625 84.894531 24.539062 97.007812 24.539062 111.898438 C 24.539062 126.789062 36.65625 138.902344 51.546875 138.902344 Z M 51.546875 99.847656 C 58.191406 99.847656 63.597656 105.253906 63.597656 111.898438 C 63.597656 118.542969 58.191406 123.953125 51.546875 123.953125 C 44.898438 123.953125 39.492188 118.542969 39.492188 111.898438 C 39.492188 105.253906 44.902344 99.847656 51.546875 99.847656 Z M 51.546875 99.847656 "/>
<path style=" stroke:none;fill-rule:nonzero;fill:rgb(30.196078%,30.196078%,30.196078%);fill-opacity:1;" d="M 295.738281 51.183594 C 295.785156 51.183594 295.828125 51.183594 295.871094 51.183594 C 296.109375 51.191406 317.402344 50.925781 329.15625 62.671875 C 330.558594 64.074219 332.390625 64.777344 334.234375 64.777344 C 334.652344 64.777344 335.070312 64.726562 335.488281 64.660156 C 335.894531 64.726562 336.3125 64.777344 336.738281 64.777344 C 338.574219 64.777344 340.410156 64.074219 341.8125 62.671875 C 353.5 50.984375 374.652344 51.175781 375.085938 51.183594 C 379.066406 51.289062 382.332031 48.136719 382.421875 44.175781 C 382.515625 40.214844 379.375 36.929688 375.414062 36.835938 C 374.386719 36.789062 351.667969 36.464844 335.488281 49.179688 C 319.296875 36.472656 296.574219 36.828125 295.558594 36.835938 C 291.601562 36.929688 288.472656 40.203125 288.554688 44.160156 C 288.636719 48.070312 291.84375 51.183594 295.738281 51.183594 Z M 295.738281 51.183594 "/>
<path style=" stroke:none;fill-rule:nonzero;fill:rgb(30.196078%,30.196078%,30.196078%);fill-opacity:1;" d="M 247.386719 85.589844 C 247.546875 85.589844 263.554688 85.449219 272.40625 96.496094 C 273.820312 98.265625 275.90625 99.1875 278.011719 99.1875 C 278.347656 99.1875 278.675781 99.070312 279.003906 99.019531 C 279.34375 99.070312 279.667969 99.1875 280.007812 99.1875 C 282.109375 99.1875 284.195312 98.265625 285.613281 96.496094 C 294.441406 85.46875 310.277344 85.566406 310.65625 85.59375 C 314.585938 85.703125 317.898438 82.582031 318.011719 78.628906 C 318.128906 74.664062 315.011719 71.359375 311.046875 71.246094 C 310.199219 71.214844 292.371094 70.890625 279.003906 82.742188 C 265.640625 70.898438 247.824219 71.230469 246.964844 71.246094 C 243.003906 71.359375 239.886719 74.664062 240 78.628906 C 240.117188 82.585938 243.449219 85.847656 247.386719 85.589844 Z M 247.386719 85.589844 "/>
</g>
</svg>
