<?xml version="1.0" ?><!DOCTYPE svg  PUBLIC '-//W3C//DTD SVG 1.1//EN'  'http://www.w3.org/Graphics/SVG/1.1/DTD/svg11.dtd'><svg enable-background="new 0 0 800 800" color="#c5a28f" height="800px" id="Layer_1" version="1.1" viewBox="0 0 800 800" width="800px" xml:space="preserve" xmlns="http://www.w3.org/2000/svg" xmlns:xlink="http://www.w3.org/1999/xlink"><g><path d="M60.676,647.238l45.742-45.742l46.789,47.568c0.997,1.01,2.128,1.786,3.305,2.453l10.822-30.738   l-50.168-50.998c-2.795-2.846-6.613-4.448-10.597-4.465c-3.784,0.334-7.814,1.561-10.634,4.381l-56.401,56.396   c-5.841,5.841-5.841,15.303,0,21.145C45.373,653.078,54.835,653.078,60.676,647.238z" fill="#4D4D4D"/><path d="M628.721,352.27c-2.132-5.933-7.761-9.888-14.067-9.888c-6.309,0-11.937,3.955-14.068,9.888   l-51.003,141.773L466.81,263.999c-2.131-5.941-7.76-9.896-14.067-9.896s-11.937,3.955-14.067,9.896l-83.724,232.714   l-51.912-144.276c-2.132-5.941-7.76-9.896-14.068-9.896c-6.308,0-11.936,3.955-14.067,9.896l-99.548,276.687   c-0.021-0.025-0.038-0.051-0.059-0.066l-23.801,66.901c0,0-24.235,0.3-30.994,0.367v-23.696l21.044,21.393l11.056-31.397   l-35.437-36.029c-2.795-2.845-6.613-4.447-10.597-4.464c-3.784,0.092-7.814,1.561-10.634,4.381l-56.401,56.396   c-5.841,5.841-5.841,15.311,0,21.144c5.841,5.841,15.303,5.841,21.144,0l29.921-29.921v36.671   c-0.008,0.251-0.067,0.483-0.067,0.743c0.084,8.201,6.763,14.802,14.948,14.802c0.055,0,0.104,0,0.154,0   c17.435-0.184,34.891-0.259,52.338-0.409c43.264-0.358,86.498-0.617,129.744-0.775c45.008-0.158,89.915-0.217,134.751-0.158   c19.847,0.024,39.68,0.058,59.477,0.125c44.811,0.15,89.418,0.417,133.832,0.793c-0.667,0.174-1.359,0.232-2.053,0.316h128.276   c4.873,0,9.437-2.369,12.232-6.357c2.804-3.98,3.487-9.079,1.836-13.66L628.721,352.27z M614.653,401.499l21.781,60.544   l-21.928,25.191l-21.97-24.266L614.653,401.499z M452.742,313.228l31.189,86.686l-32.403,35.771l-31.002-32.917L452.742,313.228z    M288.971,401.657l21.979,61.087l-21.323,24.49l-22.504-24.857L288.971,401.657z M282.834,696.5H182.89l0.238-0.658l72.525-201.582   l23.104,25.523c2.837,3.138,6.863,4.924,11.085,4.924c0.046,0,0.096,0,0.146,0c4.272-0.043,8.323-1.911,11.131-5.141l21.423-24.606   l16.517,45.917L282.834,696.5z M476.723,696.551h-49.876H314.833l0.017-0.051h-0.238l40.339-111.459l15.887-44.164l38.332-106.544   l31.69,33.634c2.828,3.004,6.767,4.707,10.885,4.707c0.05,0,0.096,0,0.146,0c4.172-0.042,8.135-1.828,10.935-4.915l32.579-35.971   l38.285,106.419l15.892,44.164l40.772,114.18H476.723z M649.71,696.334h-27.348h-0.305L565.47,538.207l15.599-43.355l22.57,24.932   c2.837,3.138,6.862,4.924,11.085,4.924c0.046,0,0.096,0,0.146,0c4.271-0.043,8.322-1.911,11.131-5.141l22.027-25.299   l72.709,202.066H649.71z" fill="#4D4D4D"/><path d="M60.676,590.424l45.742-45.742l46.789,47.569c2.929,2.979,6.792,4.464,10.66,4.464   c3.784,0,7.572-1.427,10.484-4.289c5.887-5.791,5.966-15.261,0.176-21.144l-57.361-58.315c-2.795-2.846-6.613-4.447-10.597-4.465   c-3.784-0.225-7.814,1.553-10.634,4.373l-56.401,56.404c-5.841,5.842-5.841,15.313,0,21.145   C45.373,596.264,54.835,596.264,60.676,590.424z" fill="#4D4D4D"/><path d="M103.092,277.808c29.78,0,54.01-24.231,54.01-54.011c0-29.779-24.23-54.01-54.01-54.01   s-54.01,24.231-54.01,54.01C49.082,253.577,73.313,277.808,103.092,277.808z M103.092,199.692   c13.292,0,24.106,10.813,24.106,24.105s-10.814,24.106-24.106,24.106c-13.292,0-24.106-10.814-24.106-24.106   S89.801,199.692,103.092,199.692z" fill="#4D4D4D"/><path d="M591.478,102.368c0.092,0,0.175,0,0.267,0c0.476,0.017,43.063-0.517,66.568,22.979   c2.804,2.803,6.471,4.205,10.159,4.205c0.834,0,1.668-0.1,2.503-0.233c0.817,0.133,1.651,0.233,2.503,0.233   c3.672,0,7.343-1.402,10.146-4.205c23.379-23.38,65.684-22.996,66.551-22.979c7.961,0.208,14.486-6.091,14.67-14.018   c0.184-7.918-6.092-14.494-14.019-14.677c-2.053-0.092-47.493-0.743-79.852,24.69c-32.379-25.416-77.829-24.707-79.856-24.69   c-7.918,0.184-14.176,6.733-14.01,14.644C577.276,96.143,583.685,102.368,591.478,102.368z" fill="#4D4D4D"/><path d="M494.771,171.181c0.326,0,32.342-0.284,50.039,21.811c2.828,3.538,7,5.382,11.215,5.382   c0.667,0,1.326-0.234,1.985-0.334c0.676,0.1,1.327,0.334,2.003,0.334c4.205,0,8.377-1.844,11.214-5.382   c17.655-22.053,49.329-21.861,50.089-21.803c7.852,0.217,14.484-6.024,14.711-13.935c0.232-7.927-6-14.535-13.936-14.761   c-1.693-0.066-37.348-0.709-64.081,22.988c-26.726-23.688-62.362-23.021-64.082-22.988c-7.918,0.226-14.151,6.834-13.926,14.761   C480.235,165.173,486.902,171.698,494.771,171.181z" fill="#4D4D4D"/></g></svg>